<svg xmlns="http://www.w3.org/2000/svg" xmlns:xlink="http://www.w3.org/1999/xlink" contentStyleType="text/css" data-diagram-type="SALT" height="317px" preserveAspectRatio="none" style="width:950px;height:317px;background:#FFFFFF;" version="1.1" viewBox="0 0 950 317" width="950px" zoomAndPan="magnify"><defs/><g><text fill="#000000" font-family="sans-serif" font-size="12" font-weight="bold" lengthAdjust="spacing" textLength="211.8809" x="6" y="18.9492">&#1046;&#1091;&#1088;&#1085;&#1072;&#1083; &#1079;&#1072;&#1087;&#1091;&#1089;&#1082;&#1086;&#1074; &#1075;&#1077;&#1085;&#1077;&#1088;&#1072;&#1094;&#1080;&#1080; &#1090;&#1077;&#1089;&#1090;&#1086;&#1074;</text><text fill="#000000" font-family="sans-serif" font-size="12" lengthAdjust="spacing" textLength="42.7266" x="7" y="53.8711">&#1055;&#1088;&#1086;&#1077;&#1082;&#1090;:</text><rect fill="#EEEEEE" height="18.9609" style="stroke:#000000;stroke-width:1;" width="103" x="51.7266" y="40.9219"/><text fill="#000000" font-family="sans-serif" font-size="12" lengthAdjust="spacing" textLength="69.9023" x="53.7266" y="55.8711">&#1042;&#1089;&#1077; &#1087;&#1088;&#1086;&#1077;&#1082;&#1090;&#1099;</text><line style="stroke:#000000;stroke-width:1;" x1="143.7266" x2="143.7266" y1="40.9219" y2="59.8828"/><polygon fill="#000000" points="146.7266,46.9219,152.7266,46.9219,149.7266,54.8828" style="stroke:#000000;stroke-width:1;"/><text fill="#000000" font-family="sans-serif" font-size="12" lengthAdjust="spacing" textLength="90.8965" x="157.7266" y="53.8711">&#1055;&#1086;&#1082;&#1088;&#1099;&#1090;&#1080;&#1077; &#1086;&#1090;, %:</text><text fill="#000000" font-family="sans-serif" font-size="12" lengthAdjust="spacing" textLength="6.6738" x="253.623" y="53.8711">0</text><line style="stroke:#000000;stroke-width:1;" x1="251.623" x2="278.623" y1="56.8828" y2="56.8828"/><line style="stroke:#000000;stroke-width:1;" x1="251.623" x2="251.623" y1="53.8828" y2="55.8828"/><line style="stroke:#000000;stroke-width:1;" x1="278.623" x2="278.623" y1="53.8828" y2="55.8828"/><text fill="#000000" font-family="sans-serif" font-size="12" lengthAdjust="spacing" textLength="34.3477" x="282.623" y="53.8711">&#1076;&#1086;, %:</text><text fill="#000000" font-family="sans-serif" font-size="12" lengthAdjust="spacing" textLength="20.0215" x="321.9707" y="53.8711">100</text><line style="stroke:#000000;stroke-width:1;" x1="319.9707" x2="346.9707" y1="56.8828" y2="56.8828"/><line style="stroke:#000000;stroke-width:1;" x1="319.9707" x2="319.9707" y1="53.8828" y2="55.8828"/><line style="stroke:#000000;stroke-width:1;" x1="346.9707" x2="346.9707" y1="53.8828" y2="55.8828"/><text fill="#000000" font-family="sans-serif" font-size="12" lengthAdjust="spacing" textLength="177.6504" x="370.9707" y="53.8711">&#1058;&#1086;&#1083;&#1100;&#1082;&#1086; &#1089; &#1085;&#1077;&#1087;&#1086;&#1082;&#1088;&#1099;&#1090;&#1099;&#1084;&#1080; &#1074;&#1077;&#1090;&#1074;&#1103;&#1084;&#1080;</text><rect fill="none" height="10" style="stroke:#000000;stroke-width:1.5;" width="10" x="352.9707" y="43.9023"/><polygon fill="#000000" points="353.9707,46.9219,356.9707,49.9219,363.9707,40.9219,356.9707,47.9219" style="stroke:#000000;stroke-width:1.5;"/><rect fill="#EEEEEE" height="19.9609" rx="5" ry="5" style="stroke:#000000;stroke-width:2.5;" width="76" x="553.1211" y="43.4219"/><text fill="#000000" font-family="sans-serif" font-size="12" lengthAdjust="spacing" textLength="62.0039" x="560.1191" y="58.3711">&#1055;&#1088;&#1080;&#1084;&#1077;&#1085;&#1080;&#1090;&#1100;</text><rect fill="#EEEEEE" height="19.9609" rx="5" ry="5" style="stroke:#000000;stroke-width:2.5;" width="68" x="636.1211" y="43.4219"/><text fill="#000000" font-family="sans-serif" font-size="12" lengthAdjust="spacing" textLength="53.3379" x="643.4521" y="58.3711">&#1057;&#1073;&#1088;&#1086;&#1089;&#1080;&#1090;&#1100;</text><rect fill="#EEEEEE" height="19.9609" rx="5" ry="5" style="stroke:#000000;stroke-width:2.5;" width="68" x="711.1211" y="43.4219"/><text fill="#000000" font-family="sans-serif" font-size="12" lengthAdjust="spacing" textLength="54.334" x="717.9541" y="58.3711">&#1054;&#1073;&#1085;&#1086;&#1074;&#1080;&#1090;&#1100;</text><line style="stroke:#000000;stroke-width:1;" x1="6" x2="50.7266" y1="31.9414" y2="31.9414"/><line style="stroke:#000000;stroke-width:1;" x1="50.7266" x2="156.7266" y1="31.9414" y2="31.9414"/><line style="stroke:#000000;stroke-width:1;" x1="156.7266" x2="249.623" y1="31.9414" y2="31.9414"/><line style="stroke:#000000;stroke-width:1;" x1="249.623" x2="281.623" y1="31.9414" y2="31.9414"/><line style="stroke:#000000;stroke-width:1;" x1="281.623" x2="317.9707" y1="31.9414" y2="31.9414"/><line style="stroke:#000000;stroke-width:1;" x1="317.9707" x2="349.9707" y1="31.9414" y2="31.9414"/><line style="stroke:#000000;stroke-width:1;" x1="349.9707" x2="549.6211" y1="31.9414" y2="31.9414"/><line style="stroke:#000000;stroke-width:1;" x1="549.6211" x2="632.6211" y1="31.9414" y2="31.9414"/><line style="stroke:#000000;stroke-width:1;" x1="632.6211" x2="707.6211" y1="31.9414" y2="31.9414"/><line style="stroke:#000000;stroke-width:1;" x1="707.6211" x2="782.6211" y1="31.9414" y2="31.9414"/><line style="stroke:#000000;stroke-width:1;" x1="6" x2="50.7266" y1="66.8828" y2="66.8828"/><line style="stroke:#000000;stroke-width:1;" x1="50.7266" x2="156.7266" y1="66.8828" y2="66.8828"/><line style="stroke:#000000;stroke-width:1;" x1="156.7266" x2="249.623" y1="66.8828" y2="66.8828"/><line style="stroke:#000000;stroke-width:1;" x1="249.623" x2="281.623" y1="66.8828" y2="66.8828"/><line style="stroke:#000000;stroke-width:1;" x1="281.623" x2="317.9707" y1="66.8828" y2="66.8828"/><line style="stroke:#000000;stroke-width:1;" x1="317.9707" x2="349.9707" y1="66.8828" y2="66.8828"/><line style="stroke:#000000;stroke-width:1;" x1="349.9707" x2="549.6211" y1="66.8828" y2="66.8828"/><line style="stroke:#000000;stroke-width:1;" x1="549.6211" x2="632.6211" y1="66.8828" y2="66.8828"/><line style="stroke:#000000;stroke-width:1;" x1="632.6211" x2="707.6211" y1="66.8828" y2="66.8828"/><line style="stroke:#000000;stroke-width:1;" x1="707.6211" x2="782.6211" y1="66.8828" y2="66.8828"/><line style="stroke:#000000;stroke-width:1;" x1="6" x2="6" y1="31.9414" y2="66.8828"/><line style="stroke:#000000;stroke-width:1;" x1="782.6211" x2="782.6211" y1="31.9414" y2="66.8828"/><rect fill="#FFFFFF" height="15.9609" style="stroke:#FFFFFF;stroke-width:1;" width="93.5566" x="12" y="23.9609"/><text fill="#000000" font-family="sans-serif" font-size="12" lengthAdjust="spacing" textLength="93.5566" x="12" y="36.9102">&#1060;&#1080;&#1083;&#1100;&#1090;&#1088; &#1079;&#1072;&#1087;&#1091;&#1089;&#1082;&#1086;&#1074;</text><text fill="#000000" font-family="sans-serif" font-size="12" lengthAdjust="spacing" textLength="39.3926" x="9" y="116.7539">&#1055;&#1088;&#1086;&#1077;&#1082;&#1090;</text><text fill="#000000" font-family="sans-serif" font-size="12" lengthAdjust="spacing" textLength="41.9414" x="105.7109" y="116.7539">&#1053;&#1072;&#1095;&#1072;&#1083;&#1086;</text><text fill="#000000" font-family="sans-serif" font-size="12" lengthAdjust="spacing" textLength="38.332" x="201.1328" y="116.7539">&#1057;&#1090;&#1072;&#1090;&#1091;&#1089;</text><text fill="#000000" font-family="sans-serif" font-size="12" lengthAdjust="spacing" textLength="47.2793" x="259.7051" y="116.7539">&#1060;&#1091;&#1085;&#1082;&#1094;&#1080;&#1081;</text><text fill="#000000" font-family="sans-serif" font-size="12" lengthAdjust="spacing" textLength="67.1719" x="308.9844" y="116.7539">&#1058;&#1077;&#1089;&#1090;-&#1082;&#1077;&#1081;&#1089;&#1086;&#1074;</text><text fill="#000000" font-family="sans-serif" font-size="12" lengthAdjust="spacing" textLength="33.252" x="378.1563" y="116.7539">&#1042;&#1077;&#1090;&#1074;&#1080;</text><text fill="#000000" font-family="sans-serif" font-size="12" lengthAdjust="spacing" textLength="54.7207" x="416.8535" y="116.7539">&#1055;&#1086;&#1082;&#1088;&#1099;&#1090;&#1080;&#1077;</text><text fill="#000000" font-family="sans-serif" font-size="12" lengthAdjust="spacing" textLength="84.6914" x="9" y="134.7148">OrderProcessor</text><text fill="#000000" font-family="sans-serif" font-size="12" lengthAdjust="spacing" textLength="93.4219" x="105.7109" y="134.7148">01.07.2026 13:00</text><text fill="#000000" font-family="sans-serif" font-size="12" lengthAdjust="spacing" textLength="56.5723" x="201.1328" y="134.7148">&#1047;&#1072;&#1074;&#1077;&#1088;&#1096;&#1105;&#1085;</text><text fill="#000000" font-family="sans-serif" font-size="12" lengthAdjust="spacing" textLength="6.6738" x="259.7051" y="134.7148">5</text><text fill="#000000" font-family="sans-serif" font-size="12" lengthAdjust="spacing" textLength="13.3477" x="308.9844" y="134.7148">68</text><text fill="#000000" font-family="sans-serif" font-size="12" lengthAdjust="spacing" textLength="36.6973" x="378.1563" y="134.7148">41 / 41</text><text fill="#000000" font-family="sans-serif" font-size="12" lengthAdjust="spacing" textLength="44.0332" x="416.8535" y="134.7148">100,0 %</text><text fill="#000000" font-family="sans-serif" font-size="12" lengthAdjust="spacing" textLength="94.7109" x="9" y="152.6758">SampleCalculator</text><text fill="#000000" font-family="sans-serif" font-size="12" lengthAdjust="spacing" textLength="93.4219" x="105.7109" y="152.6758">01.07.2026 14:00</text><text fill="#000000" font-family="sans-serif" font-size="12" lengthAdjust="spacing" textLength="56.5723" x="201.1328" y="152.6758">&#1047;&#1072;&#1074;&#1077;&#1088;&#1096;&#1105;&#1085;</text><text fill="#000000" font-family="sans-serif" font-size="12" lengthAdjust="spacing" textLength="6.6738" x="259.7051" y="152.6758">2</text><text fill="#000000" font-family="sans-serif" font-size="12" lengthAdjust="spacing" textLength="13.3477" x="308.9844" y="152.6758">14</text><text fill="#000000" font-family="sans-serif" font-size="12" lengthAdjust="spacing" textLength="23.3496" x="378.1563" y="152.6758">7 / 7</text><text fill="#000000" font-family="sans-serif" font-size="12" lengthAdjust="spacing" textLength="44.0332" x="416.8535" y="152.6758">100,0 %</text><line style="stroke:#000000;stroke-width:1;" x1="8" x2="104.7109" y1="102.8047" y2="102.8047"/><line style="stroke:#000000;stroke-width:1;" x1="104.7109" x2="200.1328" y1="102.8047" y2="102.8047"/><line style="stroke:#000000;stroke-width:1;" x1="200.1328" x2="258.7051" y1="102.8047" y2="102.8047"/><line style="stroke:#000000;stroke-width:1;" x1="258.7051" x2="307.9844" y1="102.8047" y2="102.8047"/><line style="stroke:#000000;stroke-width:1;" x1="307.9844" x2="377.1563" y1="102.8047" y2="102.8047"/><line style="stroke:#000000;stroke-width:1;" x1="377.1563" x2="415.8535" y1="102.8047" y2="102.8047"/><line style="stroke:#000000;stroke-width:1;" x1="415.8535" x2="472.5742" y1="102.8047" y2="102.8047"/><line style="stroke:#000000;stroke-width:1;" x1="8" x2="104.7109" y1="156.6875" y2="156.6875"/><line style="stroke:#000000;stroke-width:1;" x1="104.7109" x2="200.1328" y1="156.6875" y2="156.6875"/><line style="stroke:#000000;stroke-width:1;" x1="200.1328" x2="258.7051" y1="156.6875" y2="156.6875"/><line style="stroke:#000000;stroke-width:1;" x1="258.7051" x2="307.9844" y1="156.6875" y2="156.6875"/><line style="stroke:#000000;stroke-width:1;" x1="307.9844" x2="377.1563" y1="156.6875" y2="156.6875"/><line style="stroke:#000000;stroke-width:1;" x1="377.1563" x2="415.8535" y1="156.6875" y2="156.6875"/><line style="stroke:#000000;stroke-width:1;" x1="415.8535" x2="472.5742" y1="156.6875" y2="156.6875"/><line style="stroke:#000000;stroke-width:1;" x1="8" x2="104.7109" y1="138.7266" y2="138.7266"/><line style="stroke:#000000;stroke-width:1;" x1="104.7109" x2="200.1328" y1="138.7266" y2="138.7266"/><line style="stroke:#000000;stroke-width:1;" x1="200.1328" x2="258.7051" y1="138.7266" y2="138.7266"/><line style="stroke:#000000;stroke-width:1;" x1="258.7051" x2="307.9844" y1="138.7266" y2="138.7266"/><line style="stroke:#000000;stroke-width:1;" x1="307.9844" x2="377.1563" y1="138.7266" y2="138.7266"/><line style="stroke:#000000;stroke-width:1;" x1="377.1563" x2="415.8535" y1="138.7266" y2="138.7266"/><line style="stroke:#000000;stroke-width:1;" x1="415.8535" x2="472.5742" y1="138.7266" y2="138.7266"/><line style="stroke:#000000;stroke-width:1;" x1="8" x2="104.7109" y1="120.7656" y2="120.7656"/><line style="stroke:#000000;stroke-width:1;" x1="104.7109" x2="200.1328" y1="120.7656" y2="120.7656"/><line style="stroke:#000000;stroke-width:1;" x1="200.1328" x2="258.7051" y1="120.7656" y2="120.7656"/><line style="stroke:#000000;stroke-width:1;" x1="258.7051" x2="307.9844" y1="120.7656" y2="120.7656"/><line style="stroke:#000000;stroke-width:1;" x1="307.9844" x2="377.1563" y1="120.7656" y2="120.7656"/><line style="stroke:#000000;stroke-width:1;" x1="377.1563" x2="415.8535" y1="120.7656" y2="120.7656"/><line style="stroke:#000000;stroke-width:1;" x1="415.8535" x2="472.5742" y1="120.7656" y2="120.7656"/><line style="stroke:#000000;stroke-width:1;" x1="8" x2="8" y1="102.8047" y2="120.7656"/><line style="stroke:#000000;stroke-width:1;" x1="200.1328" x2="200.1328" y1="138.7266" y2="156.6875"/><line style="stroke:#000000;stroke-width:1;" x1="104.7109" x2="104.7109" y1="102.8047" y2="120.7656"/><line style="stroke:#000000;stroke-width:1;" x1="258.7051" x2="258.7051" y1="138.7266" y2="156.6875"/><line style="stroke:#000000;stroke-width:1;" x1="200.1328" x2="200.1328" y1="102.8047" y2="120.7656"/><line style="stroke:#000000;stroke-width:1;" x1="307.9844" x2="307.9844" y1="138.7266" y2="156.6875"/><line style="stroke:#000000;stroke-width:1;" x1="258.7051" x2="258.7051" y1="102.8047" y2="120.7656"/><line style="stroke:#000000;stroke-width:1;" x1="377.1563" x2="377.1563" y1="138.7266" y2="156.6875"/><line style="stroke:#000000;stroke-width:1;" x1="307.9844" x2="307.9844" y1="102.8047" y2="120.7656"/><line style="stroke:#000000;stroke-width:1;" x1="415.8535" x2="415.8535" y1="138.7266" y2="156.6875"/><line style="stroke:#000000;stroke-width:1;" x1="472.5742" x2="472.5742" y1="138.7266" y2="156.6875"/><line style="stroke:#000000;stroke-width:1;" x1="377.1563" x2="377.1563" y1="102.8047" y2="120.7656"/><line style="stroke:#000000;stroke-width:1;" x1="415.8535" x2="415.8535" y1="102.8047" y2="120.7656"/><line style="stroke:#000000;stroke-width:1;" x1="472.5742" x2="472.5742" y1="102.8047" y2="120.7656"/><line style="stroke:#000000;stroke-width:1;" x1="8" x2="8" y1="120.7656" y2="138.7266"/><line style="stroke:#000000;stroke-width:1;" x1="104.7109" x2="104.7109" y1="120.7656" y2="138.7266"/><line style="stroke:#000000;stroke-width:1;" x1="200.1328" x2="200.1328" y1="120.7656" y2="138.7266"/><line style="stroke:#000000;stroke-width:1;" x1="258.7051" x2="258.7051" y1="120.7656" y2="138.7266"/><line style="stroke:#000000;stroke-width:1;" x1="307.9844" x2="307.9844" y1="120.7656" y2="138.7266"/><line style="stroke:#000000;stroke-width:1;" x1="377.1563" x2="377.1563" y1="120.7656" y2="138.7266"/><line style="stroke:#000000;stroke-width:1;" x1="415.8535" x2="415.8535" y1="120.7656" y2="138.7266"/><line style="stroke:#000000;stroke-width:1;" x1="472.5742" x2="472.5742" y1="120.7656" y2="138.7266"/><line style="stroke:#000000;stroke-width:1;" x1="8" x2="8" y1="138.7266" y2="156.6875"/><line style="stroke:#000000;stroke-width:1;" x1="104.7109" x2="104.7109" y1="138.7266" y2="156.6875"/><line style="stroke:#000000;stroke-width:1;" x1="7" x2="473.5742" y1="93.8242" y2="93.8242"/><line style="stroke:#000000;stroke-width:1;" x1="7" x2="473.5742" y1="157.6875" y2="157.6875"/><line style="stroke:#000000;stroke-width:1;" x1="7" x2="7" y1="93.8242" y2="157.6875"/><line style="stroke:#000000;stroke-width:1;" x1="473.5742" x2="473.5742" y1="93.8242" y2="157.6875"/><rect fill="#FFFFFF" height="15.9609" style="stroke:#FFFFFF;stroke-width:1;" width="145.7344" x="13" y="85.8438"/><text fill="#000000" font-family="sans-serif" font-size="12" lengthAdjust="spacing" textLength="145.7344" x="13" y="98.793">&#1047;&#1072;&#1087;&#1091;&#1089;&#1082;&#1080; &#1075;&#1077;&#1085;&#1077;&#1088;&#1072;&#1094;&#1080;&#1080; &#1090;&#1077;&#1089;&#1090;&#1086;&#1074;</text><text fill="#000000" font-family="sans-serif" font-size="12" lengthAdjust="spacing" textLength="277.2891" x="8" y="205.5586">&#1047;&#1072;&#1087;&#1091;&#1089;&#1082;: OrderProcessor, &#1087;&#1086;&#1082;&#1088;&#1099;&#1090;&#1080;&#1077; &#1074;&#1077;&#1090;&#1074;&#1077;&#1081; 100,0 %</text><rect fill="#EEEEEE" height="19.9609" rx="5" ry="5" style="stroke:#000000;stroke-width:2.5;" width="132" x="354.0762" y="195.1094"/><text fill="#000000" font-family="sans-serif" font-size="12" lengthAdjust="spacing" textLength="100.3535" x="369.8994" y="210.0586">&#1044;&#1086;&#1073;&#1072;&#1074;&#1080;&#1090;&#1100; &#1079;&#1072;&#1084;&#1077;&#1090;&#1082;&#1091;</text><rect fill="#EEEEEE" height="19.9609" rx="5" ry="5" style="stroke:#000000;stroke-width:2.5;" width="116" x="493.0762" y="195.1094"/><text fill="#000000" font-family="sans-serif" font-size="12" lengthAdjust="spacing" textLength="86.0098" x="508.0713" y="210.0586">&#1059;&#1076;&#1072;&#1083;&#1080;&#1090;&#1100; &#1079;&#1072;&#1087;&#1091;&#1089;&#1082;</text><text fill="#000000" font-family="sans-serif" font-size="12" font-weight="bold" lengthAdjust="spacing" textLength="52.3008" x="10" y="232.5195">&#1060;&#1091;&#1085;&#1082;&#1094;&#1080;&#1080;</text><line style="stroke:#000000;stroke-width:1;" x1="8" x2="8" y1="219.5703" y2="235.5313"/><line style="stroke:#000000;stroke-width:1;" x1="8" x2="65.3008" y1="219.5703" y2="219.5703"/><line style="stroke:#000000;stroke-width:1;" x1="65.3008" x2="65.3008" y1="219.5703" y2="235.5313"/><line style="stroke:#000000;stroke-width:1;" x1="65.3008" x2="75.3008" y1="235.5313" y2="235.5313"/><text fill="#000000" font-family="sans-serif" font-size="12" lengthAdjust="spacing" textLength="33.252" x="77.3008" y="232.5195">&#1042;&#1077;&#1090;&#1074;&#1080;</text><line style="stroke:#000000;stroke-width:1;" x1="75.3008" x2="75.3008" y1="219.5703" y2="235.5313"/><line style="stroke:#000000;stroke-width:1;" x1="75.3008" x2="113.5527" y1="219.5703" y2="219.5703"/><line style="stroke:#000000;stroke-width:1;" x1="113.5527" x2="113.5527" y1="219.5703" y2="235.5313"/><line style="stroke:#000000;stroke-width:1;" x1="113.5527" x2="123.5527" y1="235.5313" y2="235.5313"/><text fill="#000000" font-family="sans-serif" font-size="12" lengthAdjust="spacing" textLength="62.748" x="125.5527" y="232.5195">&#1058;&#1077;&#1089;&#1090;-&#1082;&#1077;&#1081;&#1089;&#1099;</text><line style="stroke:#000000;stroke-width:1;" x1="123.5527" x2="123.5527" y1="219.5703" y2="235.5313"/><line style="stroke:#000000;stroke-width:1;" x1="123.5527" x2="191.3008" y1="219.5703" y2="219.5703"/><line style="stroke:#000000;stroke-width:1;" x1="191.3008" x2="191.3008" y1="219.5703" y2="235.5313"/><line style="stroke:#000000;stroke-width:1;" x1="191.3008" x2="201.3008" y1="235.5313" y2="235.5313"/><text fill="#000000" font-family="sans-serif" font-size="12" lengthAdjust="spacing" textLength="46.2949" x="203.3008" y="232.5195">&#1047;&#1072;&#1084;&#1077;&#1090;&#1082;&#1080;</text><line style="stroke:#000000;stroke-width:1;" x1="201.3008" x2="201.3008" y1="219.5703" y2="235.5313"/><line style="stroke:#000000;stroke-width:1;" x1="201.3008" x2="252.5957" y1="219.5703" y2="219.5703"/><line style="stroke:#000000;stroke-width:1;" x1="252.5957" x2="252.5957" y1="219.5703" y2="235.5313"/><line style="stroke:#000000;stroke-width:1;" x1="252.5957" x2="262.5957" y1="235.5313" y2="235.5313"/><text fill="#000000" font-family="sans-serif" font-size="12" lengthAdjust="spacing" textLength="32.666" x="9" y="251.4805">&#1050;&#1083;&#1072;&#1089;&#1089;</text><text fill="#000000" font-family="sans-serif" font-size="12" lengthAdjust="spacing" textLength="47.0742" x="95.6914" y="251.4805">&#1060;&#1091;&#1085;&#1082;&#1094;&#1080;&#1103;</text><text fill="#000000" font-family="sans-serif" font-size="12" lengthAdjust="spacing" textLength="61.418" x="191.7402" y="251.4805">&#1057;&#1083;&#1086;&#1078;&#1085;&#1086;&#1089;&#1090;&#1100;</text><text fill="#000000" font-family="sans-serif" font-size="12" lengthAdjust="spacing" textLength="33.252" x="255.1582" y="251.4805">&#1042;&#1077;&#1090;&#1074;&#1080;</text><text fill="#000000" font-family="sans-serif" font-size="12" lengthAdjust="spacing" textLength="54.7207" x="293.8555" y="251.4805">&#1055;&#1086;&#1082;&#1088;&#1099;&#1090;&#1080;&#1077;</text><text fill="#000000" font-family="sans-serif" font-size="12" lengthAdjust="spacing" textLength="84.6914" x="9" y="269.4414">OrderProcessor</text><text fill="#000000" font-family="sans-serif" font-size="12" lengthAdjust="spacing" textLength="94.0488" x="95.6914" y="269.4414">calculateDiscount</text><text fill="#000000" font-family="sans-serif" font-size="12" lengthAdjust="spacing" textLength="6.6738" x="191.7402" y="269.4414">7</text><text fill="#000000" font-family="sans-serif" font-size="12" lengthAdjust="spacing" textLength="36.6973" x="255.1582" y="269.4414">12 / 12</text><text fill="#000000" font-family="sans-serif" font-size="12" lengthAdjust="spacing" textLength="44.0332" x="293.8555" y="269.4414">100,0 %</text><text fill="#000000" font-family="sans-serif" font-size="12" lengthAdjust="spacing" textLength="84.6914" x="9" y="287.4023">OrderProcessor</text><text fill="#000000" font-family="sans-serif" font-size="12" lengthAdjust="spacing" textLength="72.0352" x="95.6914" y="287.4023">validateOrder</text><text fill="#000000" font-family="sans-serif" font-size="12" lengthAdjust="spacing" textLength="6.6738" x="191.7402" y="287.4023">4</text><text fill="#000000" font-family="sans-serif" font-size="12" lengthAdjust="spacing" textLength="23.3496" x="255.1582" y="287.4023">6 / 6</text><text fill="#000000" font-family="sans-serif" font-size="12" lengthAdjust="spacing" textLength="44.0332" x="293.8555" y="287.4023">100,0 %</text><line style="stroke:#000000;stroke-width:1;" x1="8" x2="94.6914" y1="237.5313" y2="237.5313"/><line style="stroke:#000000;stroke-width:1;" x1="190.7402" x2="254.1582" y1="273.4531" y2="273.4531"/><line style="stroke:#000000;stroke-width:1;" x1="94.6914" x2="190.7402" y1="237.5313" y2="237.5313"/><line style="stroke:#000000;stroke-width:1;" x1="254.1582" x2="292.8555" y1="273.4531" y2="273.4531"/><line style="stroke:#000000;stroke-width:1;" x1="190.7402" x2="254.1582" y1="237.5313" y2="237.5313"/><line style="stroke:#000000;stroke-width:1;" x1="292.8555" x2="349.5762" y1="273.4531" y2="273.4531"/><line style="stroke:#000000;stroke-width:1;" x1="254.1582" x2="292.8555" y1="237.5313" y2="237.5313"/><line style="stroke:#000000;stroke-width:1;" x1="292.8555" x2="349.5762" y1="237.5313" y2="237.5313"/><line style="stroke:#000000;stroke-width:1;" x1="8" x2="94.6914" y1="291.4141" y2="291.4141"/><line style="stroke:#000000;stroke-width:1;" x1="94.6914" x2="190.7402" y1="291.4141" y2="291.4141"/><line style="stroke:#000000;stroke-width:1;" x1="190.7402" x2="254.1582" y1="291.4141" y2="291.4141"/><line style="stroke:#000000;stroke-width:1;" x1="8" x2="94.6914" y1="255.4922" y2="255.4922"/><line style="stroke:#000000;stroke-width:1;" x1="254.1582" x2="292.8555" y1="291.4141" y2="291.4141"/><line style="stroke:#000000;stroke-width:1;" x1="94.6914" x2="190.7402" y1="255.4922" y2="255.4922"/><line style="stroke:#000000;stroke-width:1;" x1="292.8555" x2="349.5762" y1="291.4141" y2="291.4141"/><line style="stroke:#000000;stroke-width:1;" x1="190.7402" x2="254.1582" y1="255.4922" y2="255.4922"/><line style="stroke:#000000;stroke-width:1;" x1="254.1582" x2="292.8555" y1="255.4922" y2="255.4922"/><line style="stroke:#000000;stroke-width:1;" x1="292.8555" x2="349.5762" y1="255.4922" y2="255.4922"/><line style="stroke:#000000;stroke-width:1;" x1="8" x2="94.6914" y1="273.4531" y2="273.4531"/><line style="stroke:#000000;stroke-width:1;" x1="94.6914" x2="190.7402" y1="273.4531" y2="273.4531"/><line style="stroke:#000000;stroke-width:1;" x1="8" x2="8" y1="237.5313" y2="255.4922"/><line style="stroke:#000000;stroke-width:1;" x1="190.7402" x2="190.7402" y1="273.4531" y2="291.4141"/><line style="stroke:#000000;stroke-width:1;" x1="94.6914" x2="94.6914" y1="237.5313" y2="255.4922"/><line style="stroke:#000000;stroke-width:1;" x1="254.1582" x2="254.1582" y1="273.4531" y2="291.4141"/><line style="stroke:#000000;stroke-width:1;" x1="190.7402" x2="190.7402" y1="237.5313" y2="255.4922"/><line style="stroke:#000000;stroke-width:1;" x1="292.8555" x2="292.8555" y1="273.4531" y2="291.4141"/><line style="stroke:#000000;stroke-width:1;" x1="349.5762" x2="349.5762" y1="273.4531" y2="291.4141"/><line style="stroke:#000000;stroke-width:1;" x1="254.1582" x2="254.1582" y1="237.5313" y2="255.4922"/><line style="stroke:#000000;stroke-width:1;" x1="292.8555" x2="292.8555" y1="237.5313" y2="255.4922"/><line style="stroke:#000000;stroke-width:1;" x1="349.5762" x2="349.5762" y1="237.5313" y2="255.4922"/><line style="stroke:#000000;stroke-width:1;" x1="8" x2="8" y1="255.4922" y2="273.4531"/><line style="stroke:#000000;stroke-width:1;" x1="94.6914" x2="94.6914" y1="255.4922" y2="273.4531"/><line style="stroke:#000000;stroke-width:1;" x1="190.7402" x2="190.7402" y1="255.4922" y2="273.4531"/><line style="stroke:#000000;stroke-width:1;" x1="254.1582" x2="254.1582" y1="255.4922" y2="273.4531"/><line style="stroke:#000000;stroke-width:1;" x1="292.8555" x2="292.8555" y1="255.4922" y2="273.4531"/><line style="stroke:#000000;stroke-width:1;" x1="349.5762" x2="349.5762" y1="255.4922" y2="273.4531"/><line style="stroke:#000000;stroke-width:1;" x1="8" x2="8" y1="273.4531" y2="291.4141"/><line style="stroke:#000000;stroke-width:1;" x1="94.6914" x2="94.6914" y1="273.4531" y2="291.4141"/><line style="stroke:#000000;stroke-width:1;" x1="7" x2="350.5762" y1="183.6289" y2="183.6289"/><line style="stroke:#000000;stroke-width:1;" x1="350.5762" x2="489.5762" y1="183.6289" y2="183.6289"/><line style="stroke:#000000;stroke-width:1;" x1="489.5762" x2="612.5762" y1="183.6289" y2="183.6289"/><line style="stroke:#000000;stroke-width:1;" x1="7" x2="350.5762" y1="292.4141" y2="292.4141"/><line style="stroke:#000000;stroke-width:1;" x1="350.5762" x2="489.5762" y1="292.4141" y2="292.4141"/><line style="stroke:#000000;stroke-width:1;" x1="489.5762" x2="612.5762" y1="292.4141" y2="292.4141"/><line style="stroke:#000000;stroke-width:1;" x1="7" x2="7" y1="183.6289" y2="218.5703"/><line style="stroke:#000000;stroke-width:1;" x1="612.5762" x2="612.5762" y1="236.5313" y2="292.4141"/><line style="stroke:#000000;stroke-width:1;" x1="612.5762" x2="612.5762" y1="218.5703" y2="236.5313"/><line style="stroke:#000000;stroke-width:1;" x1="612.5762" x2="612.5762" y1="183.6289" y2="218.5703"/><line style="stroke:#000000;stroke-width:1;" x1="7" x2="7" y1="236.5313" y2="292.4141"/><line style="stroke:#000000;stroke-width:1;" x1="7" x2="7" y1="218.5703" y2="236.5313"/><rect fill="#FFFFFF" height="15.9609" style="stroke:#FFFFFF;stroke-width:1;" width="156.1406" x="13" y="175.6484"/><text fill="#000000" font-family="sans-serif" font-size="12" lengthAdjust="spacing" textLength="156.1406" x="13" y="188.5977">&#1044;&#1077;&#1090;&#1072;&#1083;&#1080; &#1074;&#1099;&#1073;&#1088;&#1072;&#1085;&#1085;&#1086;&#1075;&#1086; &#1079;&#1072;&#1087;&#1091;&#1089;&#1082;&#1072;</text><text fill="#000000" font-family="sans-serif" font-size="12" lengthAdjust="spacing" textLength="64.0605" x="785.6211" y="114.7539">&#1047;&#1072;&#1087;&#1091;&#1089;&#1082;&#1086;&#1074;: 3</text><text fill="#000000" font-family="sans-serif" font-size="12" lengthAdjust="spacing" textLength="155.6191" x="785.6211" y="132.7148">&#1057;&#1088;&#1077;&#1076;&#1085;&#1077;&#1077; &#1087;&#1086;&#1082;&#1088;&#1099;&#1090;&#1080;&#1077;: 100,0 %</text><text fill="#000000" font-family="sans-serif" font-size="12" lengthAdjust="spacing" textLength="87.1875" x="785.6211" y="150.6758">&#1058;&#1077;&#1089;&#1090;-&#1082;&#1077;&#1081;&#1089;&#1086;&#1074;: 92</text><text fill="#000000" font-family="sans-serif" font-size="12" lengthAdjust="spacing" textLength="124.1543" x="785.6211" y="168.6367">&#1053;&#1077;&#1087;&#1086;&#1082;&#1088;&#1099;&#1090;&#1099;&#1093; &#1074;&#1077;&#1090;&#1074;&#1077;&#1081;: 0</text><text fill="#000000" font-family="sans-serif" font-size="12" font-weight="bold" lengthAdjust="spacing" textLength="154.6699" x="785.6211" y="186.5977">&#1057;&#1072;&#1084;&#1099;&#1077; &#1089;&#1083;&#1086;&#1078;&#1085;&#1099;&#1077; &#1092;&#1091;&#1085;&#1082;&#1094;&#1080;&#1080;</text><text fill="#000000" font-family="sans-serif" font-size="12" lengthAdjust="spacing" textLength="47.0742" x="786.6211" y="205.5586">&#1060;&#1091;&#1085;&#1082;&#1094;&#1080;&#1103;</text><text fill="#000000" font-family="sans-serif" font-size="12" lengthAdjust="spacing" textLength="40.3301" x="882.6699" y="205.5586">&#1057;&#1083;&#1086;&#1078;&#1085;.</text><text fill="#000000" font-family="sans-serif" font-size="12" lengthAdjust="spacing" textLength="94.0488" x="786.6211" y="223.5195">calculateDiscount</text><text fill="#000000" font-family="sans-serif" font-size="12" lengthAdjust="spacing" textLength="6.6738" x="882.6699" y="223.5195">7</text><text fill="#000000" font-family="sans-serif" font-size="12" lengthAdjust="spacing" textLength="91.377" x="786.6211" y="241.4805">processInventory</text><text fill="#000000" font-family="sans-serif" font-size="12" lengthAdjust="spacing" textLength="6.6738" x="882.6699" y="241.4805">7</text><line style="stroke:#000000;stroke-width:1;" x1="785.6211" x2="881.6699" y1="191.6094" y2="191.6094"/><line style="stroke:#000000;stroke-width:1;" x1="881.6699" x2="924" y1="209.5703" y2="209.5703"/><line style="stroke:#000000;stroke-width:1;" x1="881.6699" x2="924" y1="191.6094" y2="191.6094"/><line style="stroke:#000000;stroke-width:1;" x1="785.6211" x2="881.6699" y1="245.4922" y2="245.4922"/><line style="stroke:#000000;stroke-width:1;" x1="881.6699" x2="924" y1="245.4922" y2="245.4922"/><line style="stroke:#000000;stroke-width:1;" x1="785.6211" x2="881.6699" y1="227.5313" y2="227.5313"/><line style="stroke:#000000;stroke-width:1;" x1="785.6211" x2="881.6699" y1="209.5703" y2="209.5703"/><line style="stroke:#000000;stroke-width:1;" x1="881.6699" x2="924" y1="227.5313" y2="227.5313"/><line style="stroke:#000000;stroke-width:1;" x1="785.6211" x2="785.6211" y1="191.6094" y2="209.5703"/><line style="stroke:#000000;stroke-width:1;" x1="924" x2="924" y1="227.5313" y2="245.4922"/><line style="stroke:#000000;stroke-width:1;" x1="881.6699" x2="881.6699" y1="209.5703" y2="227.5313"/><line style="stroke:#000000;stroke-width:1;" x1="924" x2="924" y1="209.5703" y2="227.5313"/><line style="stroke:#000000;stroke-width:1;" x1="881.6699" x2="881.6699" y1="191.6094" y2="209.5703"/><line style="stroke:#000000;stroke-width:1;" x1="924" x2="924" y1="191.6094" y2="209.5703"/><line style="stroke:#000000;stroke-width:1;" x1="785.6211" x2="785.6211" y1="227.5313" y2="245.4922"/><line style="stroke:#000000;stroke-width:1;" x1="785.6211" x2="785.6211" y1="209.5703" y2="227.5313"/><line style="stroke:#000000;stroke-width:1;" x1="881.6699" x2="881.6699" y1="227.5313" y2="245.4922"/><line style="stroke:#000000;stroke-width:1;" x1="784.6211" x2="942.2402" y1="92.8242" y2="92.8242"/><line style="stroke:#000000;stroke-width:1;" x1="784.6211" x2="942.2402" y1="246.4922" y2="246.4922"/><line style="stroke:#000000;stroke-width:1;" x1="784.6211" x2="784.6211" y1="92.8242" y2="118.7656"/><line style="stroke:#000000;stroke-width:1;" x1="942.2402" x2="942.2402" y1="118.7656" y2="136.7266"/><line style="stroke:#000000;stroke-width:1;" x1="942.2402" x2="942.2402" y1="92.8242" y2="118.7656"/><line style="stroke:#000000;stroke-width:1;" x1="784.6211" x2="784.6211" y1="190.6094" y2="246.4922"/><line style="stroke:#000000;stroke-width:1;" x1="784.6211" x2="784.6211" y1="172.6484" y2="190.6094"/><line style="stroke:#000000;stroke-width:1;" x1="942.2402" x2="942.2402" y1="190.6094" y2="246.4922"/><line style="stroke:#000000;stroke-width:1;" x1="784.6211" x2="784.6211" y1="154.6875" y2="172.6484"/><line style="stroke:#000000;stroke-width:1;" x1="942.2402" x2="942.2402" y1="172.6484" y2="190.6094"/><line style="stroke:#000000;stroke-width:1;" x1="784.6211" x2="784.6211" y1="136.7266" y2="154.6875"/><line style="stroke:#000000;stroke-width:1;" x1="942.2402" x2="942.2402" y1="154.6875" y2="172.6484"/><line style="stroke:#000000;stroke-width:1;" x1="784.6211" x2="784.6211" y1="118.7656" y2="136.7266"/><line style="stroke:#000000;stroke-width:1;" x1="942.2402" x2="942.2402" y1="136.7266" y2="154.6875"/><rect fill="#FFFFFF" height="15.9609" style="stroke:#FFFFFF;stroke-width:1;" width="107.625" x="790.6211" y="84.8438"/><text fill="#000000" font-family="sans-serif" font-size="12" lengthAdjust="spacing" textLength="107.625" x="790.6211" y="97.793">&#1057;&#1074;&#1086;&#1076;&#1082;&#1072; &#1087;&#1086; &#1074;&#1099;&#1073;&#1086;&#1088;&#1082;&#1077;</text><line style="stroke:#000000;stroke-width:1;" x1="5" x2="783.6211" y1="5" y2="5"/><line style="stroke:#000000;stroke-width:1;" x1="783.6211" x2="943.2402" y1="5" y2="5"/><line style="stroke:#000000;stroke-width:1;" x1="5" x2="783.6211" y1="310.375" y2="310.375"/><line style="stroke:#000000;stroke-width:1;" x1="783.6211" x2="943.2402" y1="310.375" y2="310.375"/><line style="stroke:#000000;stroke-width:1;" x1="5" x2="5" y1="5" y2="22.9609"/><line style="stroke:#000000;stroke-width:1;" x1="943.2402" x2="943.2402" y1="83.8438" y2="310.375"/><line style="stroke:#000000;stroke-width:1;" x1="943.2402" x2="943.2402" y1="22.9609" y2="83.8438"/><line style="stroke:#000000;stroke-width:1;" x1="943.2402" x2="943.2402" y1="5" y2="22.9609"/><line style="stroke:#000000;stroke-width:1;" x1="5" x2="5" y1="83.8438" y2="310.375"/><line style="stroke:#000000;stroke-width:1;" x1="5" x2="5" y1="22.9609" y2="83.8438"/><!--SRC=[xLVhQXD15Fw_Jt6eY2ssTPEsgIuYHQjYss1fhGZImfgiPJ7TBPlTYDX0cdg358eY5iGBKHyWhKPZQkChpBoHtvdTfBdK2_xEZ-pkdFivtpSpP2hhcvwVDJC-tRUTj7j_PCrDtGlMjLCateYAg8kgB9BuB0wms1U7ee7l1k5Lnw92Wt9JDEIcB2hrWQYAGn9VO24B-Av0KXFVH4K-mRisJFCPq_6NadEqY8n3siFJ6j7vEnV4Axa5XqDs8BONFo7OH8w6sEVi28j22ir0X7nLbHLwX7YuCY0-GN4WjsLH5df23C26IBn7X0PYrMNHe0rQ4IzWK2LOjkIoj0ADUCyDoe8i8KMDJHgoE4mdsMj09nfW6tJP5CLqdKMtRosJ-01NrC69IMuI5ov-7eMJ9V433M1O6ApObpjg2LzLNGqhxhK6m-rb9IwBFIuFbRO9tuazXSL-94H_UPw3wfEdiTisWDhV9XYE1uudee_EMN6pR-7uLE7Pu6MP0KTc9E3b9xc5y7KL-ZiBFeJ1HvW_uZjp13X2_YBiMdNSFUHMxkjUslBcFJTbPREk1qizDgfFZiRrU89YOuQki_Ek8Xmwai_aSv1kWoRmIvp5Opn6P_YnGS1bMAUJhSYBvjfwnhfaPb91nlHxOe__DdQSWutZCOdGapsHyzhHawV_KhMfs0-a0Jb3MC68MlkddQ2LvlpRKJEwnZ1CxImAIHbnY4VSB4YnuoKCzrGFYXrXjX_Ak2wtGWPz17zLWKSMKURb9XlEgAtPZcsj1yDke6MfES0e7yponz3hDHyeCE-cZznHz6AUYQyyBewE0l-REwa8R6lQpgRSmF4LY00m3YHZyMD8qXCYPsRiD28e1VEBYGRln1zua8UEcL16mGsC6YWh02CweAy2Zomwc7OxZok3na9vMPsYNzGPKkqXWD6H_TWzPz2vUAXzstqCoSST1398LuOCUPdXGvbL761D9CBbetOoQ1sW_W75qSZaM2mYtNeuy6jEpdAmCn-qL6gQMbwRifmqtrEQDlMxEwj_dVIla_vrqhzE-jT9_phvz-kazPyaPtbPstKenljtOZG-U2EmQCPqI9-ak6wCJHXZ2KekpXAhXxJ1g_Dpb7K3BsLHsixwddqdyE4_fCsOEPCMK92zPc7ZhLlEpFHiKq2NdPpjkSuQ2jDcRYQF31BZ8nTjdnOj3vNGpQGsRTqr0znobvsKcxQTLOEMRbmPEQlDcSvgOAuYjXTebxXpxu512qk_0000]--></g></svg>